<svg width="24" height="24" viewBox="0 0 24 24" fill="none" xmlns="http://www.w3.org/2000/svg">
<path d="M20.9672 2.76855C20.6246 2.6268 20.2477 2.5898 19.8841 2.66223C19.5205 2.73465 19.1865 2.91324 18.9244 3.17542C18.9056 3.19417 18.8878 3.21292 18.8709 3.23261L17.4647 4.85448C15.808 3.88512 13.9232 3.3742 12.0038 3.3742C10.0843 3.3742 8.19949 3.88512 6.54282 4.85448L5.13657 3.23261C5.1197 3.21292 5.10189 3.19417 5.08314 3.17542C4.82137 2.91075 4.48675 2.72998 4.12189 2.65615C3.75704 2.58231 3.37846 2.61876 3.03439 2.76083C2.69031 2.9029 2.39632 3.14418 2.18985 3.45392C1.98338 3.76367 1.87378 4.12786 1.87501 4.50011V12.7501C1.87501 17.9195 6.4172 22.1251 12 22.1251C17.5828 22.1251 22.125 17.9195 22.125 12.7501V4.50011C22.1248 4.12935 22.0148 3.76697 21.8087 3.45876C21.6026 3.15055 21.3098 2.91036 20.9672 2.76855ZM19.875 12.7501C19.875 16.3332 16.9359 19.306 13.125 19.801V18.4689L14.2959 17.2979C14.5073 17.0866 14.626 16.7999 14.626 16.501C14.626 16.2022 14.5073 15.9155 14.2959 15.7042C14.0846 15.4928 13.798 15.3741 13.4991 15.3741C13.2002 15.3741 12.9135 15.4928 12.7022 15.7042L12 16.4064L11.2959 15.7014C11.0846 15.49 10.798 15.3713 10.4991 15.3713C10.2002 15.3713 9.91354 15.49 9.7022 15.7014C9.49085 15.9127 9.37212 16.1993 9.37212 16.4982C9.37212 16.7971 9.49085 17.0838 9.7022 17.2951L10.875 18.4689V19.8039C7.06407 19.3089 4.12501 16.3351 4.12501 12.7529V5.50699L5.48814 7.07542C5.67409 7.28928 5.93391 7.42508 6.21565 7.45567C6.49739 7.48626 6.7803 7.40939 7.00782 7.24042C7.6179 6.78942 8.28857 6.42678 9.00001 6.16324V8.25011C9.00001 8.54848 9.11854 8.83463 9.32951 9.04561C9.54049 9.25658 9.82664 9.37511 10.125 9.37511C10.4234 9.37511 10.7095 9.25658 10.9205 9.04561C11.1315 8.83463 11.25 8.54848 11.25 8.25011V5.65792C11.5 5.63605 11.75 5.62511 12 5.62511C12.25 5.62511 12.5 5.63605 12.75 5.65792V8.25011C12.75 8.54848 12.8685 8.83463 13.0795 9.04561C13.2905 9.25658 13.5766 9.37511 13.875 9.37511C14.1734 9.37511 14.4595 9.25658 14.6705 9.04561C14.8815 8.83463 15 8.54848 15 8.25011V6.16324C15.7113 6.427 16.382 6.78963 16.9922 7.24042C17.2197 7.40939 17.5026 7.48626 17.7844 7.45567C18.0661 7.42508 18.3259 7.28928 18.5119 7.07542L19.875 5.50699V12.7501ZM9.37501 13.1251C9.37501 13.4218 9.28704 13.7118 9.12221 13.9585C8.95739 14.2051 8.72312 14.3974 8.44903 14.5109C8.17495 14.6245 7.87335 14.6542 7.58237 14.5963C7.2914 14.5384 7.02413 14.3955 6.81435 14.1858C6.60457 13.976 6.46171 13.7087 6.40383 13.4177C6.34595 13.1268 6.37566 12.8252 6.48919 12.5511C6.60272 12.277 6.79498 12.0427 7.04166 11.8779C7.28833 11.7131 7.57834 11.6251 7.87501 11.6251C8.27283 11.6251 8.65437 11.7831 8.93567 12.0645C9.21697 12.3458 9.37501 12.7273 9.37501 13.1251ZM17.625 13.1251C17.625 13.4218 17.537 13.7118 17.3722 13.9585C17.2074 14.2051 16.9731 14.3974 16.699 14.5109C16.4249 14.6245 16.1233 14.6542 15.8324 14.5963C15.5414 14.5384 15.2741 14.3955 15.0644 14.1858C14.8546 13.976 14.7117 13.7087 14.6538 13.4177C14.596 13.1268 14.6257 12.8252 14.7392 12.5511C14.8527 12.277 15.045 12.0427 15.2917 11.8779C15.5383 11.7131 15.8283 11.6251 16.125 11.6251C16.5228 11.6251 16.9044 11.7831 17.1857 12.0645C17.467 12.3458 17.625 12.7273 17.625 13.1251Z" fill="#FF8C42"/>
</svg>
